<svg width="216" height="51" viewBox="0 0 216 51" fill="none" xmlns="http://www.w3.org/2000/svg">
<path d="M43.7805 13.1808V13.3436C43.7805 17.9972 43.0123 22.4728 41.5971 26.6492C37.7602 20.0419 32.9697 17.5693 30.7712 16.7363C30.7447 16.7212 30.7144 16.706 30.6879 16.6946C28.13 15.4943 25.2731 14.8204 22.2648 14.8204C19.2528 14.8204 16.3959 15.4943 13.8379 16.6946C12.6649 17.2475 11.9119 18.4326 11.9081 19.7276C11.9081 19.7541 11.9081 19.7806 11.9081 19.8033C11.9081 20.3296 11.927 20.8522 11.9686 21.3709C11.8324 20.11 11.3254 12.2607 18.163 3.14296C19.4647 3.01801 20.7815 2.95743 22.1172 2.95743H22.2383C28.5046 2.965 34.4416 4.36599 39.7619 6.86504C42.2063 8.01233 43.7729 10.4811 43.7843 13.1846L43.7805 13.1808Z" fill="url(#paint0_linear_283_566)"/>
<path d="M24.2439 36.0283C23.5855 36.5281 18.4241 40.1517 9.32745 38.8946C3.80664 31.8556 0.518372 22.984 0.518372 13.3437C0.518372 13.2907 0.518372 13.2339 0.518372 13.1809C0.529723 10.4774 2.09629 8.00862 4.54073 6.86133C8.74472 4.8848 13.3347 3.59741 18.163 3.13925C11.3254 12.257 11.8324 20.1101 11.9687 21.3672C11.9687 21.3975 11.9724 21.4202 11.9762 21.4429C12.4719 27.5088 15.6883 32.8023 20.3994 36.1078C20.9594 36.5016 21.6102 36.7023 22.2648 36.7174C22.9157 36.7023 23.5703 36.5016 24.1303 36.1078C24.1682 36.0813 24.206 36.0548 24.2439 36.0283Z" fill="url(#paint1_linear_283_566)"/>
<path d="M41.6161 26.6984C38.7365 35.1233 33.2157 42.3213 26.0488 47.3118C24.8606 48.1373 23.4795 48.5576 22.1021 48.5689C20.721 48.5462 19.3436 48.1183 18.1592 47.2853C14.8066 44.9226 11.8249 42.0752 9.30853 38.8416C18.4014 40.1289 23.5703 36.5167 24.2325 36.0207C29.3106 32.4311 32.6367 26.5167 32.6556 19.8222V19.7465C32.6556 18.4781 31.9405 17.3194 30.8166 16.7477C33.0151 17.5882 37.798 20.0759 41.6123 26.6946L41.6161 26.6984Z" fill="url(#paint2_linear_283_566)"/>
<path d="M25.4585 29.0347H18.8366C18.303 29.0347 17.97 28.4591 18.2387 27.9972L20.2858 24.4455C19.7636 23.9457 19.4382 23.2414 19.4382 22.4652C19.4382 20.9506 20.6642 19.72 22.1816 19.72C23.699 19.72 24.925 20.9468 24.925 22.4652C24.925 23.2679 24.5806 23.9874 24.0357 24.4872L26.0602 27.9972C26.3251 28.4591 25.9921 29.0347 25.4623 29.0347H25.4585Z" fill="#662D91"/>
<path d="M55.5941 35.6004L62.7458 14.2827H67.9298L75.2329 35.6004H71.8651L65.3945 15.6458L58.9239 35.6004H55.5941ZM59.9456 29.277L60.0591 26.7401H70.6543L70.8056 29.277H59.9456Z" fill="#231F20"/>
<path d="M83.7468 35.979C83.0392 35.979 82.3543 35.8843 81.6845 35.695C81.0148 35.5057 80.398 35.2406 79.8304 34.8999C79.2628 34.5591 78.7595 34.1539 78.3168 33.6882C77.8741 33.2225 77.5297 32.7151 77.2762 32.1736C77.0227 31.6322 76.8978 31.0566 76.8978 30.4508H79.8872C79.8872 30.4773 79.9061 30.6515 79.9439 30.9809C79.9818 31.3103 80.1142 31.6814 80.3412 32.0979C80.5683 32.5144 80.9391 32.8741 81.4575 33.177C81.9759 33.4799 82.7138 33.6314 83.6711 33.6314C84.4014 33.6314 85.022 33.5443 85.5253 33.3663C86.0285 33.1922 86.4221 32.9423 86.6983 32.628C86.9745 32.3137 87.1145 31.9275 87.1145 31.4731C87.1145 30.8408 86.8762 30.3523 86.3956 29.9964C85.915 29.6443 85.2982 29.3641 84.5414 29.1634C83.7846 28.9627 82.9825 28.7545 82.1386 28.5386C81.2948 28.3228 80.5002 28.054 79.7547 27.7245C79.0093 27.3951 78.4038 26.9294 77.9384 26.3236C77.473 25.7177 77.2384 24.9112 77.2384 23.9002C77.2649 22.5371 77.8438 21.4845 78.979 20.7386C80.1142 19.9926 81.5786 19.6216 83.3684 19.6216C84.2274 19.6216 85.0599 19.7238 85.8658 19.9245C86.6718 20.1289 87.3983 20.4432 88.0416 20.8711C88.6849 21.2989 89.2033 21.8669 89.593 22.575C89.9828 23.283 90.1682 24.1539 90.1417 25.1876H87.1902C87.2167 24.5553 87.107 24.0403 86.8686 23.6352C86.6302 23.23 86.3123 22.9158 85.9226 22.6886C85.5328 22.4614 85.1166 22.3099 84.6739 22.2342C84.2312 22.1585 83.8111 22.1206 83.4063 22.1206C82.3959 22.1206 81.6013 22.2986 81.0224 22.6507C80.4434 23.0028 80.152 23.4951 80.152 24.1274C80.152 24.7598 80.3904 25.2444 80.871 25.5852C81.3516 25.926 81.9683 26.1986 82.7251 26.3993C83.4819 26.6 84.2879 26.8044 85.1469 27.0051C86.0058 27.2058 86.8118 27.4784 87.5686 27.8192C88.3254 28.16 88.9422 28.6333 89.4228 29.2391C89.9033 29.845 90.1417 30.6515 90.1417 31.6624C90.1417 32.6734 89.8693 33.4534 89.3282 34.0858C88.7871 34.7181 88.034 35.1914 87.0767 35.5057C86.1194 35.82 85.0069 35.979 83.7468 35.979Z" fill="#231F20"/>
<path d="M96.196 35.6004H93.0175V14.2827H96.196V35.6004ZM96.0069 31.7761V28.1789L103.688 20.0381H107.624L96.0069 31.7761ZM100.094 25.3391L107.737 35.6004H103.915L97.7853 27.5352L100.094 25.3391Z" fill="#231F20"/>
<path d="M110.159 17.0089V14.2827H119.051V17.0089H110.159ZM110.159 35.6004V32.8741H119.051V35.6004H110.159ZM113.073 34.9188V14.9642H116.175V34.9188H113.073Z" fill="#231F20"/>
<path d="M122.949 35.6004V20.1138H125.673L126.203 23.7109H126.279C126.305 23.6087 126.403 23.3701 126.581 22.9915C126.759 22.6129 127.047 22.2039 127.452 21.7609C127.857 21.3179 128.398 20.9355 129.079 20.606C129.76 20.2766 130.619 20.1138 131.652 20.1138C132.685 20.1138 133.623 20.2842 134.32 20.625C135.012 20.9658 135.568 21.4201 135.985 21.9881C136.401 22.5561 136.696 23.1922 136.874 23.9002C137.052 24.6083 137.165 25.3126 137.214 26.0207C137.263 26.7287 137.29 27.3951 137.29 28.0275V35.6004H134.225V28.0275C134.225 27.043 134.123 26.1721 133.922 25.4148C133.718 24.6575 133.355 24.0517 132.825 23.5973C132.295 23.143 131.501 22.9158 130.441 22.9158C129.381 22.9158 128.541 23.1695 127.925 23.6731C127.308 24.1767 126.865 24.8355 126.6 25.642C126.335 26.4485 126.203 27.308 126.203 28.2168V35.6004H122.949Z" fill="#231F20"/>
<path d="M139.367 22.3857V20.1138H148.865V22.3857H139.367ZM141.6 35.6761V17.1604C141.6 16.0244 141.853 15.1801 142.357 14.6235C142.86 14.0706 143.655 13.7904 144.741 13.7904H149.054V16.2895H144.778V35.6761H141.6Z" fill="#231F20"/>
<path d="M157.909 35.979C156.217 35.979 154.798 35.6382 153.652 34.9567C152.505 34.2751 151.654 33.3361 151.098 32.1358C150.541 30.9355 150.265 29.5685 150.265 28.0275C150.265 26.4864 150.541 25.1195 151.098 23.9192C151.65 22.7189 152.498 21.7798 153.633 21.0983C154.768 20.4167 156.195 20.0759 157.909 20.0759C160.38 20.0759 162.26 20.8067 163.547 22.2721C164.833 23.7374 165.477 25.6685 165.477 28.0653C165.477 29.5534 165.204 30.8976 164.663 32.0979C164.122 33.2982 163.29 34.2448 162.166 34.9377C161.042 35.6306 159.623 35.979 157.909 35.979ZM157.909 33.2906C159.12 33.2906 160.047 33.0256 160.69 32.4955C161.333 31.9654 161.78 31.2914 162.033 30.4697C162.287 29.6481 162.412 28.8113 162.412 27.9517C162.412 27.0922 162.287 26.2554 162.033 25.4337C161.78 24.6121 161.333 23.9381 160.69 23.408C160.047 22.8779 159.12 22.6128 157.909 22.6128C156.698 22.6128 155.76 22.8779 155.09 23.408C154.42 23.9381 153.962 24.6121 153.709 25.4337C153.455 26.2554 153.33 27.0922 153.33 27.9517C153.33 28.8113 153.455 29.6481 153.709 30.4697C153.962 31.2914 154.42 31.9654 155.09 32.4955C155.76 33.0256 156.698 33.2906 157.909 33.2906Z" fill="#231F20"/>
<path d="M174.823 35.979C174.116 35.979 173.431 35.8843 172.761 35.695C172.091 35.5057 171.474 35.2406 170.907 34.8999C170.339 34.5591 169.836 34.1539 169.393 33.6882C168.95 33.2225 168.606 32.7151 168.353 32.1736C168.099 31.6322 167.974 31.0566 167.974 30.4508H170.964C170.964 30.4773 170.982 30.6515 171.02 30.9809C171.058 31.3103 171.191 31.6814 171.418 32.0979C171.645 32.5144 172.015 32.8741 172.534 33.177C173.052 33.4799 173.79 33.6314 174.747 33.6314C175.478 33.6314 176.098 33.5443 176.602 33.3663C177.105 33.1922 177.498 32.9423 177.775 32.628C178.051 32.3137 178.191 31.9275 178.191 31.4731C178.191 30.8408 177.953 30.3523 177.472 29.9964C176.991 29.6443 176.375 29.3641 175.618 29.1634C174.861 28.9627 174.059 28.7545 173.215 28.5386C172.371 28.3228 171.577 28.054 170.831 27.7245C170.086 27.3951 169.48 26.9294 169.015 26.3236C168.549 25.7177 168.315 24.9112 168.315 23.9002C168.341 22.5371 168.92 21.4845 170.055 20.7386C171.191 19.9926 172.655 19.6216 174.445 19.6216C175.304 19.6216 176.132 19.7238 176.942 19.9245C177.748 20.1289 178.475 20.4432 179.118 20.8711C179.761 21.2989 180.28 21.8669 180.669 22.575C181.059 23.283 181.245 24.1539 181.218 25.1876H178.267C178.293 24.5553 178.183 24.0403 177.945 23.6352C177.707 23.23 177.389 22.9158 176.999 22.6886C176.605 22.4614 176.193 22.3099 175.75 22.2342C175.308 22.1585 174.887 22.1206 174.483 22.1206C173.472 22.1206 172.678 22.2986 172.099 22.6507C171.52 23.0028 171.228 23.4951 171.228 24.1274C171.228 24.7598 171.467 25.2444 171.947 25.5852C172.428 25.926 173.045 26.1986 173.801 26.3993C174.558 26.6 175.364 26.8044 176.223 27.0051C177.082 27.2058 177.888 27.4784 178.645 27.8192C179.402 28.16 180.019 28.6333 180.499 29.2391C180.98 29.845 181.218 30.6515 181.218 31.6624C181.218 32.6734 180.946 33.4534 180.405 34.0858C179.863 34.7181 179.11 35.1914 178.153 35.5057C177.196 35.82 176.083 35.979 174.823 35.979Z" fill="#231F20"/>
<path d="M190.943 35.979C189.202 35.979 187.776 35.5928 186.667 34.8241C185.558 34.0555 184.737 33.0634 184.207 31.8518C183.678 30.6401 183.401 29.3792 183.375 28.0653C183.375 26.5507 183.67 25.1876 184.264 23.976C184.858 22.7643 185.713 21.8063 186.837 21.0983C187.961 20.3902 189.304 20.0381 190.867 20.0381C192.229 20.0381 193.44 20.3334 194.5 20.9279C195.559 21.5223 196.403 22.3554 197.035 23.4269C197.667 24.4985 198.008 25.7821 198.057 27.2702C198.083 27.3459 198.095 27.4898 198.095 27.7056V28.2168H186.402C186.402 29.8336 186.799 31.0869 187.594 31.9843C188.389 32.8817 189.494 33.3285 190.905 33.3285C191.965 33.3285 192.865 33.0559 193.611 32.5144C194.352 31.9729 194.803 31.2459 194.954 30.3372H198.057C197.905 31.3974 197.527 32.3554 196.922 33.2149C196.316 34.0744 195.51 34.7484 194.5 35.2406C193.489 35.7329 192.305 35.979 190.943 35.979ZM186.516 26.6643H194.878C194.878 26.3879 194.814 26.0282 194.689 25.5852C194.564 25.1422 194.348 24.6954 194.046 24.241C193.743 23.7866 193.327 23.408 192.797 23.1051C192.267 22.8022 191.598 22.6507 190.792 22.6507C190.035 22.6507 189.391 22.7832 188.862 23.0483C188.332 23.3133 187.904 23.6465 187.575 24.0517C187.246 24.4568 187 24.8923 186.837 25.358C186.675 25.8237 186.565 26.2592 186.516 26.6643Z" fill="#231F20"/>
<path d="M208.387 35.979C206.949 35.979 205.651 35.6837 204.489 35.0892C203.328 34.4947 202.408 33.6125 201.727 32.4387C201.046 31.2649 200.706 29.845 200.706 28.1789C200.755 26.5129 201.114 25.074 201.784 23.8624C202.454 22.6507 203.366 21.7155 204.527 21.0604C205.689 20.4053 206.998 20.0759 208.463 20.0759C209.927 20.0759 211.18 20.3523 212.228 20.9089C213.276 21.4656 214.101 22.1888 214.706 23.0862C215.312 23.9835 215.679 24.9491 215.804 25.9828H212.89C212.686 24.9718 212.209 24.1994 211.452 23.6541C210.695 23.1127 209.738 22.84 208.576 22.84C207.566 22.84 206.711 23.0559 206.003 23.4837C205.295 23.9116 204.754 24.5136 204.376 25.2823C203.998 26.0509 203.793 26.9408 203.771 27.9517C203.771 29.542 204.187 30.8181 205.019 31.776C205.852 32.734 207.025 33.2149 208.538 33.2149C209.624 33.2149 210.57 32.9385 211.376 32.3819C212.182 31.8253 212.686 31.0188 212.89 29.9585H215.804C215.679 31.0188 215.304 32.0032 214.687 32.912C214.07 33.8207 213.23 34.5591 212.171 35.127C211.111 35.695 209.851 35.979 208.387 35.979Z" fill="#231F20"/>
<defs>
<linearGradient id="paint0_linear_283_566" x1="43.7805" y1="14.8014" x2="11.9043" y2="14.8014" gradientUnits="userSpaceOnUse">
<stop stop-color="#C39CE5"/>
<stop offset="0.64" stop-color="#662D91"/>
<stop offset="1" stop-color="#00004A"/>
</linearGradient>
<linearGradient id="paint1_linear_283_566" x1="1.77843" y1="9.04232" x2="26.5115" y2="33.7592" gradientUnits="userSpaceOnUse">
<stop stop-color="#C39CE5"/>
<stop offset="0.64" stop-color="#662D91"/>
<stop offset="1" stop-color="#00004A"/>
</linearGradient>
<linearGradient id="paint2_linear_283_566" x1="17.6372" y1="47.0204" x2="34.2335" y2="18.5056" gradientUnits="userSpaceOnUse">
<stop stop-color="#C39CE5"/>
<stop offset="0.64" stop-color="#662D91"/>
<stop offset="1" stop-color="#00004A"/>
</linearGradient>
</defs>
</svg>
